<svg xmlns="http://www.w3.org/2000/svg" width="81" height="79" fill="none">
    <path fill="#161616"
          d="M79.313 38.295h-6.418a32.57 32.57 0 0 0-8.79-15.51L41.359.334a1.262 1.262 0 0 0-1.716 0L22.158 17.588c-.354 0-.708-.052-1.062-.052H1.686a1.223 1.223 0 0 0-.858.349 1.196 1.196 0 0 0-.355.846c.002 3.224.781 6.4 2.272 9.269a20.4 20.4 0 0 0 6.305 7.224C-4.13 77.838 57.465 97.847 72.403 55.648a20.38 20.38 0 0 0 5.98-7.145 20.108 20.108 0 0 0 2.144-9.023 1.191 1.191 0 0 0-.36-.839 1.222 1.222 0 0 0-.854-.346ZM40.498 2.863l21.895 21.613a30.22 30.22 0 0 1 7.989 13.82H59.907a20.83 20.83 0 0 0-10.611 2.91 20.482 20.482 0 0 0-7.584 7.885V37.907a20.238 20.238 0 0 0-4.648-12.877 20.705 20.705 0 0 0-11.84-7.086L40.498 2.863ZM2.951 19.929h18.142a18.375 18.375 0 0 1 10.135 3.065 18.027 18.027 0 0 1 6.69 8.119c-5.045-4.564-16.156-4.107-23.286-3.998-.31.016-.602.15-.816.372a1.19 1.19 0 0 0 0 1.65c.214.222.506.355.816.372h9.696c7.384 0 13.707 3.187 14.779 7.186H21.093A18.344 18.344 0 0 1 8.677 31.84 17.894 17.894 0 0 1 2.95 19.929Zm59.47 47.773c-23.46 22.522-61.152-.786-51.247-31.13a20.716 20.716 0 0 0 9.911 2.517h18.196v32.339a1.185 1.185 0 0 0 .33.89 1.213 1.213 0 0 0 .882.374 1.229 1.229 0 0 0 .881-.375 1.195 1.195 0 0 0 .331-.889V59.849H59.9a20.669 20.669 0 0 0 9.204-2.163 30.171 30.171 0 0 1-6.712 10.016h.029Zm-2.478-10.247H41.889c1.062-3.998 7.395-7.186 14.78-7.186h9.702c.31-.016.603-.15.816-.372a1.19 1.19 0 0 0 0-1.65 1.221 1.221 0 0 0-.816-.372c-7.1-.119-18.304-.556-23.3 3.995a18.024 18.024 0 0 1 6.691-8.12A18.371 18.371 0 0 1 59.9 40.685h18.153a17.897 17.897 0 0 1-5.727 11.913 18.348 18.348 0 0 1-12.418 4.856h.035Zm-26.74 11.883a24.584 24.584 0 0 1-13.097-9.578 24.062 24.062 0 0 1-4.16-15.558c.04-.305.197-.582.438-.776a1.225 1.225 0 0 1 1.667.128c.208.228.32.526.312.833A21.69 21.69 0 0 0 22.12 58.42c2.832 4.12 7 7.165 11.82 8.632a1.228 1.228 0 0 1 .708.605 1.195 1.195 0 0 1-.169 1.332 1.22 1.22 0 0 1-.837.414 1.239 1.239 0 0 1-.474-.058l.035-.007Z"/>
</svg>
