<svg xmlns="http://www.w3.org/2000/svg" width="81" height="79" fill="none">
    <path fill="#161616"
          d="M22.319 15.558v-4.785a2.795 2.795 0 0 0-.833-1.97 2.867 2.867 0 0 0-1.995-.825h-8.08a2.867 2.867 0 0 0-2.003.83 2.795 2.795 0 0 0-.828 1.982v4.768c0 .746.3 1.462.835 1.989a2.867 2.867 0 0 0 2.014.824h8.062a2.867 2.867 0 0 0 2.001-.831c.53-.527.827-1.24.827-1.982Zm-11.314 0v-4.785a.409.409 0 0 1 .406-.4h8.08c.107 0 .21.043.285.118a.399.399 0 0 1 .118.282v4.785a.399.399 0 0 1-.118.282.409.409 0 0 1-.285.119h-8.08a.412.412 0 0 1-.286-.118.402.402 0 0 1-.12-.283Zm5.748 8.73a1.228 1.228 0 0 1 .9.327 1.198 1.198 0 0 1 .38.87 1.185 1.185 0 0 1-.38.87 1.218 1.218 0 0 1-.9.328H9.794a1.221 1.221 0 0 1-.815-.373 1.19 1.19 0 0 1 0-1.65c.213-.222.505-.355.815-.372h6.959Zm5.804 0h6.959c.31.017.602.15.816.373a1.19 1.19 0 0 1 0 1.649 1.221 1.221 0 0 1-.816.373h-6.959a1.22 1.22 0 0 1-.815-.373 1.19 1.19 0 0 1 0-1.65 1.22 1.22 0 0 1 .815-.372Zm12.763 2.395a1.221 1.221 0 0 1-.816-.373 1.191 1.191 0 0 1 0-1.65c.214-.222.506-.355.816-.372h6.962c.31.017.603.15.816.373a1.19 1.19 0 0 1 0 1.649 1.221 1.221 0 0 1-.816.373H35.32Zm19.725 0h-6.962a1.22 1.22 0 0 1-.816-.373 1.19 1.19 0 0 1 0-1.65 1.22 1.22 0 0 1 .816-.372h6.962a1.229 1.229 0 0 1 .901.327 1.198 1.198 0 0 1 .38.87 1.186 1.186 0 0 1-.38.87 1.218 1.218 0 0 1-.9.328Zm-32.139 6.88H9.794a1.229 1.229 0 0 1-.9-.327 1.199 1.199 0 0 1-.38-.87 1.186 1.186 0 0 1 .38-.87 1.216 1.216 0 0 1 .9-.327h13.112c.31.017.603.15.816.373a1.19 1.19 0 0 1 0 1.649 1.221 1.221 0 0 1-.816.372Zm7.066-2.394h18.396c.31.017.602.15.816.373a1.19 1.19 0 0 1 0 1.649 1.221 1.221 0 0 1-.816.372H29.972a1.22 1.22 0 0 1-.816-.372 1.19 1.19 0 0 1 0-1.65 1.22 1.22 0 0 1 .816-.372ZM51.007 7.964A5.246 5.246 0 0 0 47.631 9.2a5.295 5.295 0 0 0-5.582-.737 5.215 5.215 0 0 0-2.207 1.907 5.121 5.121 0 0 0 0 5.56 5.215 5.215 0 0 0 2.207 1.908 5.296 5.296 0 0 0 5.582-.737 5.273 5.273 0 0 0 2.236 1.092 5.312 5.312 0 0 0 2.494-.051 5.265 5.265 0 0 0 2.188-1.183 5.174 5.174 0 0 0 1.388-2.047 5.117 5.117 0 0 0-.631-4.744 5.225 5.225 0 0 0-1.876-1.624 5.3 5.3 0 0 0-2.423-.585v.004Zm-6.738 7.98a2.86 2.86 0 0 1-1.795-.924 2.792 2.792 0 0 1-.72-1.869c0-.689.256-1.354.72-1.868a2.86 2.86 0 0 1 1.795-.925c.753 0 1.474.295 2.006.82.532.525.83 1.238.83 1.98 0 .743-.298 1.456-.83 1.98a2.855 2.855 0 0 1-2.006.82v-.013Zm6.738 0a2.844 2.844 0 0 1-1.92-.741 5.112 5.112 0 0 0 0-4.103 2.85 2.85 0 0 1 3.714-.01c.341.295.605.666.77 1.083a2.745 2.745 0 0 1-.282 2.553 2.8 2.8 0 0 1-.988.892 2.841 2.841 0 0 1-1.294.34v-.013ZM6.554 47.87c-3.045.351-6-1.055-6.054-4.388V4.388c0-1.164.47-2.28 1.303-3.102A4.477 4.477 0 0 1 4.944 0h54.952c1.178 0 2.308.464 3.141 1.286a4.363 4.363 0 0 1 1.303 3.102v30.314a1.192 1.192 0 0 1-.378.806 1.223 1.223 0 0 1-1.67 0c-.226-.211-.36-.5-.377-.806V4.388a1.98 1.98 0 0 0-.592-1.41 2.032 2.032 0 0 0-1.428-.584H4.945c-.536 0-1.05.21-1.429.584a1.98 1.98 0 0 0-.59 1.41v39.094c.067 2.07 2.065 2.078 3.635 1.993.31.018.602.152.815.375a1.19 1.19 0 0 1-.005 1.65 1.221 1.221 0 0 1-.817.37Zm72.728-9.574h-67.87c-.323 0-.632.126-.86.35-.227.226-.355.53-.355.849v38.292a1.186 1.186 0 0 0 .356.848 1.218 1.218 0 0 0 .858.35H79.29c.322 0 .63-.127.857-.352a1.19 1.19 0 0 0 .354-.846V39.495a1.183 1.183 0 0 0-.353-.848 1.21 1.21 0 0 0-.858-.351h-.007ZM78.068 76.59h-65.46v-35.9H78.06l.007 35.9Zm-59.385-9.573c.964 0 1.888.379 2.57 1.052a3.57 3.57 0 0 1 1.066 2.537c0 .317.127.621.355.846.227.224.535.35.856.35h43.637c.321 0 .63-.126.856-.35.228-.225.355-.529.355-.846a3.574 3.574 0 0 1 1.067-2.536 3.667 3.667 0 0 1 2.569-1.053c.321 0 .63-.126.857-.35.228-.224.356-.529.357-.846V51.46c0-.317-.13-.621-.357-.845a1.222 1.222 0 0 0-.857-.35 3.667 3.667 0 0 1-2.569-1.053 3.574 3.574 0 0 1-1.067-2.537 1.182 1.182 0 0 0-.353-.847 1.212 1.212 0 0 0-.858-.352H23.53a1.227 1.227 0 0 0-.858.352 1.194 1.194 0 0 0-.353.847c.001.473-.092.94-.274 1.378-.182.437-.45.834-.787 1.169-.338.334-.74.6-1.18.782a3.682 3.682 0 0 1-1.395.275c-.322 0-.63.126-.857.35a1.192 1.192 0 0 0-.357.846v14.362c.004.315.134.616.361.837.228.22.534.345.853.345Zm1.21-14.483a6.102 6.102 0 0 0 3.073-1.633 5.98 5.98 0 0 0 1.657-3.032h41.455a5.955 5.955 0 0 0 1.651 3.035c.84.83 1.91 1.396 3.074 1.63v12.211a6.078 6.078 0 0 0-3.074 1.63 5.955 5.955 0 0 0-1.651 3.036H24.623a5.98 5.98 0 0 0-1.657-3.033 6.103 6.103 0 0 0-3.072-1.633v-12.21Zm11.464 10.9a4.88 4.88 0 0 0 3.344-1.447 4.757 4.757 0 0 0 1.375-3.34 4.757 4.757 0 0 0-1.375-3.34 4.88 4.88 0 0 0-3.344-1.447 4.877 4.877 0 0 0-3.282 1.478 4.756 4.756 0 0 0-1.34 3.305c0 1.232.48 2.415 1.34 3.306.861.89 2.036 1.42 3.282 1.478v.007Zm0-7.18a2.44 2.44 0 0 1 1.654.732c.435.447.678 1.042.678 1.66 0 .62-.243 1.215-.678 1.661a2.439 2.439 0 0 1-1.654.732 2.439 2.439 0 0 1-1.654-.732 2.378 2.378 0 0 1-.678-1.66c0-.62.243-1.214.678-1.66a2.44 2.44 0 0 1 1.654-.733Zm28.282 7.18a4.88 4.88 0 0 0 3.344-1.447 4.757 4.757 0 0 0 1.375-3.34 4.757 4.757 0 0 0-1.375-3.34 4.88 4.88 0 0 0-3.344-1.447 4.877 4.877 0 0 0-3.282 1.478 4.756 4.756 0 0 0-1.34 3.305c0 1.232.48 2.415 1.34 3.306.861.89 2.037 1.42 3.282 1.478v.007Zm0-7.18a2.44 2.44 0 0 1 1.654.732c.435.447.678 1.042.678 1.66 0 .62-.243 1.215-.677 1.661a2.439 2.439 0 0 1-1.655.732 2.439 2.439 0 0 1-1.654-.732 2.378 2.378 0 0 1-.678-1.66c0-.62.243-1.214.678-1.66a2.44 2.44 0 0 1 1.654-.733ZM44.13 50.718c-.089-.886.065-2.043 1.211-2.043 1.147 0 1.3 1.153 1.211 2.04.768.158 1.485.497 2.093.986a4.856 4.856 0 0 1 1.4 1.826c.108.29.098.608-.027.89a1.207 1.207 0 0 1-.642.627c-.288.12-.611.125-.903.015a1.21 1.21 0 0 1-.664-.604c-.862-2.282-5.153-1.726-5.089.767 0 1.508.855 2.243 2.621 2.243a4.713 4.713 0 0 1 3.451.916 4.567 4.567 0 0 1 .856 6.464 4.682 4.682 0 0 1-3.096 1.761c.09.886-.068 2.036-1.21 2.04-1.144.003-1.3-1.157-1.212-2.043a4.935 4.935 0 0 1-2.083-.99 4.853 4.853 0 0 1-1.392-1.823 1.183 1.183 0 0 1-.007-.916c.121-.294.355-.529.651-.652.297-.124.63-.126.928-.007.298.12.536.35.66.643.862 2.286 5.157 1.727 5.093-.763 0-1.487-.887-2.243-2.639-2.243a4.713 4.713 0 0 1-3.45-.916 4.598 4.598 0 0 1-1.785-3.057 4.566 4.566 0 0 1 .928-3.407 4.682 4.682 0 0 1 3.096-1.761v.007Z"/>
</svg>
