<svg xmlns="http://www.w3.org/2000/svg" width="81" height="79" fill="none">
    <path fill="#161616"
          d="M80.477 64.224a3.57 3.57 0 0 0-1.065-2.537 3.66 3.66 0 0 0-2.568-1.052c-.843.136-15.938-.35-16.143.381.644-.958.308-3.673.39-4.771a3.578 3.578 0 0 0-1.068-2.538 3.667 3.667 0 0 0-2.57-1.055c-.28.067-16.16-.196-15.753.224V47.07h8.475a10.988 10.988 0 0 0 7.708-3.16 10.718 10.718 0 0 0 3.197-7.614c0-.316-.127-.62-.354-.844a1.22 1.22 0 0 0-.854-.352h-9.697c-1.626 0-3.23.36-4.697 1.054a10.868 10.868 0 0 0-3.778 2.951V31.06c4.059-.31 7.84-2.16 10.547-5.162a15.437 15.437 0 0 0 3.976-10.943 15.467 15.467 0 0 0-4.816-10.608A15.85 15.85 0 0 0 40.489 0 15.85 15.85 0 0 0 29.57 4.346a15.467 15.467 0 0 0-4.817 10.608 15.438 15.438 0 0 0 3.976 10.943 15.819 15.819 0 0 0 10.547 5.162v16.049a10.866 10.866 0 0 0-3.786-2.965 11.001 11.001 0 0 0-4.713-1.054h-9.68c-.321 0-.63.126-.856.35a1.19 1.19 0 0 0-.355.846 10.718 10.718 0 0 0 3.198 7.612 10.988 10.988 0 0 0 7.707 3.159h8.5v5.803c.524-.423-15.555-.147-15.754-.22a3.66 3.66 0 0 0-2.568 1.052 3.57 3.57 0 0 0-1.065 2.537c.088 1.105-.259 3.802.386 4.77-.153-.744-15.357-.248-16.143-.38a3.678 3.678 0 0 0-1.394.27c-.442.179-.844.443-1.182.776a3.59 3.59 0 0 0-.792 1.164 3.554 3.554 0 0 0-.28 1.375v3.194a3.574 3.574 0 0 0 1.066 2.536 3.663 3.663 0 0 0 2.568 1.053h14.542a3.623 3.623 0 0 0 2.422-.934c.664.597 1.528.93 2.426.934h14.542a3.63 3.63 0 0 0 2.423-.934c.662.597 1.525.93 2.422.934h14.542a3.63 3.63 0 0 0 2.423-.934c.663.597 1.528.93 2.426.934h14.542a3.664 3.664 0 0 0 2.567-1.053 3.574 3.574 0 0 0 1.066-2.536c-.085-1.564.404-4.418-.945-5.597 1.339-1.154.874-4.012.945-5.576ZM50.175 37.495h8.408a8.368 8.368 0 0 1-2.847 5.133 8.563 8.563 0 0 1-5.55 2.049h-8.408a8.368 8.368 0 0 1 2.846-5.133 8.563 8.563 0 0 1 5.551-2.049Zm-19.383 15.16a8.562 8.562 0 0 1-5.55-2.052 8.367 8.367 0 0 1-2.844-5.136h8.394a8.562 8.562 0 0 1 5.55 2.049 8.367 8.367 0 0 1 2.847 5.133l-8.397.007ZM19.89 75.394c0 .318-.129.622-.357.847-.227.224-.536.35-.857.35H4.134c-1.853-.025-1.063-2.823-1.208-4.39 0-.317.127-.62.354-.845.226-.224.533-.35.854-.352h14.542c1.856.028 1.052 2.827 1.215 4.39Zm19.387 0c0 .317-.128.621-.355.845-.227.224-.535.35-.856.352H23.521c-1.856-.025-1.063-2.82-1.212-4.39.001-.317.13-.621.356-.845.227-.225.535-.35.856-.352h14.542c1.855.028 1.04 2.827 1.214 4.39Zm0-7.979c0 .317-.128.621-.355.845-.227.224-.535.35-.856.352H23.521c-1.856-.025-1.063-2.827-1.212-4.39.002-.317.13-.62.357-.843.227-.224.534-.35.855-.35h14.542c1.855.024 1.04 2.823 1.214 4.386Zm-12.12-51.862c0-3.492 1.405-6.841 3.905-9.31 2.5-2.47 5.891-3.857 9.427-3.857 3.535 0 6.926 1.387 9.426 3.857a13.085 13.085 0 0 1 3.904 9.31c0 3.492-1.404 6.84-3.904 9.31a13.415 13.415 0 0 1-9.426 3.857 13.415 13.415 0 0 1-9.427-3.857 13.085 13.085 0 0 1-3.904-9.31Zm31.521 59.845c0 .317-.129.622-.356.846-.228.224-.537.35-.858.35H42.91c-1.852-.024-1.045-2.823-1.211-4.39 0-.317.129-.62.356-.845.227-.224.534-.35.855-.351h14.542c1.856.024 1.048 2.826 1.215 4.39h.01Zm0-7.98c0 .318-.129.623-.356.847-.228.224-.537.35-.858.35H42.91c-1.852-.024-1.045-2.826-1.211-4.39 0-.317.129-.62.356-.845.227-.224.534-.35.855-.351h14.542c1.856.024 1.048 2.826 1.215 4.39h.01Zm0-7.978c0 .317-.129.621-.356.846-.228.224-.537.35-.858.35H42.91c-1.852-.024-1.045-2.826-1.211-4.39 0-.317.127-.622.355-.846.227-.224.535-.35.856-.35h14.542c1.856.024 1.048 2.822 1.215 4.39h.01Zm19.384 15.958c-.001.317-.129.62-.356.845-.227.224-.534.35-.855.351H62.3c-1.855-.024-1.062-2.82-1.21-4.39 0-.317.127-.621.354-.846.227-.224.535-.35.857-.35h14.542c1.852.024 1.048 2.83 1.218 4.39Zm0-7.98c-.001.318-.129.621-.356.846-.227.224-.534.35-.855.351H62.3c-1.855-.024-1.062-2.826-1.21-4.39 0-.317.127-.622.354-.846.227-.224.535-.35.857-.35h14.542c1.852.024 1.048 2.826 1.218 4.39Zm-32.52-48.423a4.682 4.682 0 0 1-1.127 2.91 4.786 4.786 0 0 1-2.719 1.581c.085.886-.067 2.036-1.214 2.04-1.148.003-1.3-1.154-1.212-2.04a4.927 4.927 0 0 1-2.08-.983 4.847 4.847 0 0 1-1.394-1.815c-.11-.29-.102-.61.022-.893.124-.284.354-.51.643-.63.288-.12.612-.124.904-.013.292.11.53.329.662.609.864 2.277 5.157 1.721 5.093-.766 0-1.49-.889-2.246-2.638-2.246a4.705 4.705 0 0 1-3.322-1 4.593 4.593 0 0 1-1.7-2.991 4.564 4.564 0 0 1 .862-3.323 4.672 4.672 0 0 1 2.948-1.812c-.088-.889.064-2.043 1.212-2.043 1.147 0 1.303 1.15 1.214 2.04 1.683.234 5.054 2.941 2.834 4.365a1.22 1.22 0 0 1-1.323-.252 1.192 1.192 0 0 1-.264-.388c-.86-2.281-5.157-1.721-5.093.766 0 1.51.86 2.245 2.624 2.245.652-.069 1.31 0 1.932.204a4.593 4.593 0 0 1 1.672.976c.48.44.86.976 1.112 1.572.253.597.373 1.24.353 1.887Zm-12.75-3.442c0 .317-.127.621-.354.846a1.219 1.219 0 0 1-1.713 0 1.189 1.189 0 0 1 .002-1.697 1.226 1.226 0 0 1 1.723 0c.228.226.357.532.357.85h-.014Zm16.583 1.196c-.322 0-.63-.126-.857-.35a1.189 1.189 0 0 1 0-1.692 1.219 1.219 0 0 1 1.713 0 1.189 1.189 0 0 1 0 1.692c-.227.224-.535.35-.856.35Z"/>
</svg>
