<svg xmlns="http://www.w3.org/2000/svg" width="80" height="79" fill="none">
    <path fill="#161616"
          d="M51.173 23.136h-20.9c-.31-.017-.6-.15-.813-.373a1.19 1.19 0 0 1 0-1.647c.212-.223.503-.356.813-.372h20.9a1.22 1.22 0 0 1 .897.326 1.199 1.199 0 0 1 .378.87 1.188 1.188 0 0 1-.378.87 1.212 1.212 0 0 1-.897.326Zm-34.146 0h6.8c.31-.017.601-.15.814-.373a1.19 1.19 0 0 0 0-1.647 1.215 1.215 0 0 0-.813-.372h-6.801c-.31.016-.6.15-.813.372a1.192 1.192 0 0 0 0 1.647c.213.223.504.356.813.373Zm-6.445-2.392H9.27c-.309.016-.6.15-.813.372a1.192 1.192 0 0 0 0 1.647c.213.223.504.356.813.373h1.312c.31-.017.6-.15.813-.373a1.191 1.191 0 0 0 0-1.647 1.215 1.215 0 0 0-.813-.372Zm23.282 11.174H17.027c-.31.017-.6.15-.813.373a1.191 1.191 0 0 0 0 1.647c.213.223.504.356.813.372h16.837c.32 0 .628-.126.855-.35a1.192 1.192 0 0 0 0-1.694 1.216 1.216 0 0 0-.855-.351v.003Zm-23.282 0H9.27c-.309.017-.6.15-.813.373a1.191 1.191 0 0 0 0 1.647c.213.223.504.356.813.372h1.312c.321 0 .629-.126.856-.35a1.192 1.192 0 0 0 0-1.694 1.216 1.216 0 0 0-.856-.351v.003Zm6.448 13.56h16.834c.309-.016.6-.15.813-.372a1.191 1.191 0 0 0 0-1.647 1.215 1.215 0 0 0-.813-.373H17.027a1.215 1.215 0 0 0-.795.38 1.191 1.191 0 0 0 0 1.629c.207.221.491.357.795.38l.003.003Zm-6.448-2.395H9.27c-.309.016-.6.15-.813.372a1.192 1.192 0 0 0 0 1.648c.213.222.504.355.813.372h1.312c.31-.017.6-.15.813-.372a1.191 1.191 0 0 0 0-1.648 1.215 1.215 0 0 0-.813-.372Zm32.94 11.175H28.664c-.31.016-.6.15-.813.372a1.191 1.191 0 0 0 0 1.648c.213.222.504.355.813.372h14.854c.321 0 .629-.126.856-.35a1.192 1.192 0 0 0 0-1.695 1.216 1.216 0 0 0-.856-.35l.004.003ZM17.03 56.65h5.192c.31-.017.6-.15.813-.372a1.191 1.191 0 0 0 0-1.648 1.216 1.216 0 0 0-.813-.372h-5.196a1.215 1.215 0 0 0-.795.38 1.191 1.191 0 0 0 0 1.628c.207.222.491.357.795.38l.003.004Zm-6.449-2.396H9.27c-.309.017-.6.15-.813.373a1.191 1.191 0 0 0 0 1.647c.213.223.504.356.813.373h1.312c.31-.017.6-.15.813-.373a1.191 1.191 0 0 0 0-1.647 1.215 1.215 0 0 0-.813-.373Zm23.324 12.37a1.184 1.184 0 0 0 .353.844 1.206 1.206 0 0 0 .853.35h16.064a1.22 1.22 0 0 0 .898-.327 1.198 1.198 0 0 0 .378-.87 1.187 1.187 0 0 0-.378-.869 1.213 1.213 0 0 0-.898-.326H35.11a1.218 1.218 0 0 0-.855.35 1.195 1.195 0 0 0-.352.848h.004ZM17.03 67.818h11.64c.31-.017.6-.15.813-.372a1.191 1.191 0 0 0 0-1.648 1.215 1.215 0 0 0-.813-.372h-11.64c-.31.016-.6.149-.814.37a1.192 1.192 0 0 0-.002 1.648c.212.223.506.357.816.374Zm-6.449-2.392H9.27c-.309.016-.6.15-.813.372a1.191 1.191 0 0 0 0 1.648c.213.222.504.355.813.372h1.312c.31-.017.6-.15.813-.372a1.191 1.191 0 0 0 0-1.648 1.215 1.215 0 0 0-.813-.372Zm49.86-27.938v18.84a18.332 18.332 0 0 1 7.803-6.887 18.558 18.558 0 0 1 10.332-1.567c.32 0 .628.126.855.35.227.224.355.527.355.844a17.532 17.532 0 0 1-.588 7.96 17.662 17.662 0 0 1-4.06 6.895 17.893 17.893 0 0 1-6.706 4.429 18.048 18.048 0 0 1-7.99 1.062v5.182a4.371 4.371 0 0 1-1.299 3.102 4.46 4.46 0 0 1-3.132 1.288H4.434a4.464 4.464 0 0 1-3.133-1.288A4.375 4.375 0 0 1 0 74.596V4.386a4.371 4.371 0 0 1 1.301-3.1A4.46 4.46 0 0 1 4.434 0h51.575a4.46 4.46 0 0 1 3.13 1.287 4.37 4.37 0 0 1 1.3 3.1v9.582a1.193 1.193 0 0 1-.376.805 1.217 1.217 0 0 1-1.664 0 1.193 1.193 0 0 1-.376-.805V4.386c0-.528-.214-1.034-.591-1.408a2.025 2.025 0 0 0-1.423-.582H45.934v3.59a5.959 5.959 0 0 1-1.771 4.228 6.08 6.08 0 0 1-4.271 1.754H20.55a6.084 6.084 0 0 1-4.272-1.754 5.963 5.963 0 0 1-1.774-4.228v-3.59H4.434c-.534 0-1.045.21-1.423.582-.378.374-.59.88-.591 1.408v70.21c0 .529.212 1.036.59 1.41.378.374.89.584 1.424.584h51.575c.534 0 1.046-.21 1.424-.584.378-.374.59-.881.59-1.41V53.458a18.048 18.048 0 0 1-7.989-1.063 17.894 17.894 0 0 1-6.705-4.43 17.662 17.662 0 0 1-4.059-6.894 17.531 17.531 0 0 1-.588-7.958 1.185 1.185 0 0 1 .352-.847 1.206 1.206 0 0 1 .854-.351 18.555 18.555 0 0 1 10.334 1.567 18.327 18.327 0 0 1 7.801 6.891v-7.264c.042-2.52.63-5.004 1.722-7.281a17.679 17.679 0 0 1 4.613-5.922 17.893 17.893 0 0 1 6.676-3.5 18.006 18.006 0 0 1 7.54-.45c.32 0 .628.127.855.352.226.224.354.528.355.846a17.482 17.482 0 0 1-.454 7.464 17.595 17.595 0 0 1-3.536 6.61 17.81 17.81 0 0 1-5.982 4.566 17.979 17.979 0 0 1-7.355 1.705l-2.014-.01Zm0-4.085 7.61-7.533a1.208 1.208 0 0 1 .867-.392 1.22 1.22 0 0 1 .884.351 1.197 1.197 0 0 1 .353.877 1.188 1.188 0 0 1-.397.858l-7.605 7.532a15.322 15.322 0 0 0 6.253-1.277 15.185 15.185 0 0 0 5.17-3.71 15 15 0 0 0 3.174-5.484c.653-2.03.864-4.174.617-6.291a15.314 15.314 0 0 0-6.286.58 15.209 15.209 0 0 0-5.502 3.064 15.028 15.028 0 0 0-3.766 5.015 14.89 14.89 0 0 0-1.378 6.099l.007.31Zm-19.34.894a14.89 14.89 0 0 0 .615 6.292c.654 2.03 1.736 3.9 3.174 5.485a15.18 15.18 0 0 0 5.171 3.709c1.97.859 4.101 1.294 6.254 1.276l-7.605-7.53a1.192 1.192 0 0 1 .014-1.678 1.216 1.216 0 0 1 1.696-.015l7.606 7.53a14.91 14.91 0 0 0-1.292-6.19 15.043 15.043 0 0 0-3.745-5.116 15.227 15.227 0 0 0-5.539-3.142 15.334 15.334 0 0 0-6.353-.61l.004-.011ZM16.932 5.986c0 .95.382 1.862 1.06 2.535a3.648 3.648 0 0 0 2.559 1.055h19.34c.962-.001 1.884-.38 2.564-1.053a3.575 3.575 0 0 0 1.063-2.537v-3.59H16.932v3.59Zm43.507 59.342 7.61-7.53a1.213 1.213 0 0 1 1.706 0 1.189 1.189 0 0 1 0 1.691l-7.605 7.533a15.3 15.3 0 0 0 6.258-1.271 15.164 15.164 0 0 0 5.174-3.709 14.98 14.98 0 0 0 3.173-5.488c.652-2.032.86-4.177.61-6.295H75.35a15.068 15.068 0 0 0-5.774 1.16 14.947 14.947 0 0 0-4.872 3.28 14.775 14.775 0 0 0-3.212 4.89 14.661 14.661 0 0 0-1.053 5.739Z"/>
</svg>
