<svg xmlns="http://www.w3.org/2000/svg" width="81" height="79" fill="none">
    <path fill="#161616"
          d="M78.996 58.659a3.552 3.552 0 0 0-3.378-.447 3.42 3.42 0 0 0-.125-2.149 3.467 3.467 0 0 0-1.386-1.659c-1.64-1.245-4.138-.182-8.277 1.577a78.025 78.025 0 0 1-9.696 3.552 5.849 5.849 0 0 0-2.106-1.824 5.924 5.924 0 0 0-2.722-.651c-3.2.113-6.405.004-9.59-.33v-6.366h18.182a17.507 17.507 0 0 0 12.274-5.048 17.101 17.101 0 0 0 5.087-12.139c0-.318-.128-.623-.355-.848a1.22 1.22 0 0 0-.858-.351H56.665a17.52 17.52 0 0 0-8.613 2.273 17.265 17.265 0 0 0-6.336 6.198v-22.06h18.182a17.507 17.507 0 0 0 12.274-5.049A17.101 17.101 0 0 0 77.259 1.2c0-.315-.127-.618-.351-.842A1.224 1.224 0 0 0 76.06 0H56.665a17.507 17.507 0 0 0-12.283 5.043 17.1 17.1 0 0 0-5.092 12.144v7.286a17.264 17.264 0 0 0-6.334-6.206 17.518 17.518 0 0 0-8.615-2.279H4.946c-.321 0-.63.128-.857.352-.227.225-.355.53-.356.847a17.097 17.097 0 0 0 5.091 12.145 17.504 17.504 0 0 0 12.284 5.042H39.29v21.914c-8.175-3.21-5.186-4.587-27.28-4.824L1.915 49.876a1.242 1.242 0 0 0-.981.274 1.215 1.215 0 0 0-.434.912v21.567c0 .286.103.561.29.778.188.217.447.36.732.404l10.103 1.587c15.104 5.287 47.276 6.59 65.92-9.285 1.285-.735 5.02-4.668 1.45-7.454ZM63.11 7.996c-6.399-.28-16.066.136-20.276 3.566a14.826 14.826 0 0 1 5.492-6.65 15.087 15.087 0 0 1 8.304-2.514h18.153a14.731 14.731 0 0 1-4.768 9.668 15.067 15.067 0 0 1-10.131 3.922H41.978c1.242-2.884 6.83-5.594 14.687-5.594h6.445c.322 0 .63-.126.858-.351a1.192 1.192 0 0 0 0-1.696 1.22 1.22 0 0 0-.858-.351Zm-42.002 23.98a15.074 15.074 0 0 1-10.132-3.923 14.738 14.738 0 0 1-4.77-9.667H24.34a15.09 15.09 0 0 1 8.304 2.517 14.83 14.83 0 0 1 5.492 6.65c-4.181-3.43-13.87-3.852-20.265-3.57a1.22 1.22 0 0 0-.816.373 1.192 1.192 0 0 0 0 1.65c.214.223.506.356.816.373h6.462c7.86 0 13.442 2.713 14.687 5.593l-17.913.004ZM10.694 72.822l-7.782-1.217V52.467l7.782 1.217v19.138Zm46.219-11.017c5.493-1.213 11.503-5.083 15.72-5.5 3.943 3.382-10.874 7.028-15.862 8.497.28-.975.329-2 .142-2.997Zm-.248-27.43h18.118a14.735 14.735 0 0 1-4.769 9.666 15.07 15.07 0 0 1-10.13 3.923H41.978c1.242-2.884 6.83-5.594 14.687-5.594h6.445c.322 0 .63-.126.858-.351a1.192 1.192 0 0 0 0-1.696 1.22 1.22 0 0 0-.858-.351c-6.395-.28-16.066.14-20.276 3.57a14.827 14.827 0 0 1 5.506-6.662 15.088 15.088 0 0 1 8.325-2.506ZM76.12 64.185C51.33 83.625 18.682 75.024 13.135 73.35V53.862c16.555.073 19.307 1.675 21.74 3.087 2.501 1.448 4.655 2.7 16.54 2.507.502-.001.997.11 1.447.328.45.217.845.534 1.152.925a3.223 3.223 0 0 1 .585 2.799c0 .35-.187 1.528-2.302 2.3-2.268.878-7.263 1.626-18.2.224-.32-.04-.642.046-.897.24a1.19 1.19 0 0 0-.22 1.684c.196.252.486.416.806.457 12.543 2.822 29.784-2.342 38.32-6.324 2.475-1.05 4.824-2.025 5.351-1.591 1.723 1.293-.552 3.038-1.355 3.688h.018ZM6.807 56.603c.322 0 .63.126.858.351a1.192 1.192 0 0 1 0 1.696 1.22 1.22 0 0 1-1.716 0 1.192 1.192 0 0 1 0-1.696 1.22 1.22 0 0 1 .858-.35Z"/>
</svg>