<svg xmlns="http://www.w3.org/2000/svg" width="25" height="24" fill="none" viewBox="0 0 25 24">
<path fill="#000"
      d="M17.68 5.672c0-.691.588-1.252 1.315-1.252.726 0 1.315.56 1.315 1.252s-.589 1.253-1.315 1.253c-.727 0-1.316-.56-1.316-1.253Z"/>
<path fill="#000" fill-rule="evenodd"
      d="M12.418 5.986c-3.45 0-6.247 2.664-6.247 5.95 0 3.287 2.797 5.95 6.247 5.95 3.45 0 6.248-2.663 6.248-5.95 0-3.286-2.797-5.95-6.248-5.95Zm-4.274 5.95c0-2.248 1.913-4.071 4.274-4.071 2.361 0 4.275 1.823 4.275 4.071 0 2.249-1.914 4.072-4.275 4.072-2.36 0-4.274-1.823-4.274-4.072Z"
      clip-rule="evenodd"/>
<path fill="#000" fill-rule="evenodd"
      d="M19.335.452a65.881 65.881 0 0 0-13.832 0C2.857.733.72 2.719.409 5.252a54.81 54.81 0 0 0 0 13.366c.311 2.534 2.448 4.52 5.094 4.801 4.56.486 9.273.486 13.832 0 2.647-.281 4.783-2.267 5.094-4.8.546-4.44.546-8.926 0-13.366-.31-2.534-2.447-4.52-5.094-4.801ZM5.722 2.319c4.414-.47 8.98-.47 13.394 0 1.75.186 3.151 1.501 3.354 3.152a53.024 53.024 0 0 1 0 12.93c-.203 1.65-1.604 2.965-3.354 3.151-4.414.47-8.98.47-13.394 0-1.75-.186-3.15-1.501-3.353-3.152a53.02 53.02 0 0 1 0-12.929c.202-1.65 1.604-2.966 3.353-3.152Z"
      clip-rule="evenodd"/>
</svg>
