<svg xmlns="http://www.w3.org/2000/svg">
    <symbol id="benefit-1" viewBox="0 0 81 79">
        <path fill="#161616"
              d="M80.477 64.224a3.57 3.57 0 0 0-1.065-2.537 3.66 3.66 0 0 0-2.568-1.052c-.843.136-15.938-.35-16.143.381.644-.958.308-3.673.39-4.771a3.578 3.578 0 0 0-1.068-2.538 3.667 3.667 0 0 0-2.57-1.055c-.28.067-16.16-.196-15.753.224V47.07h8.475a10.988 10.988 0 0 0 7.708-3.16 10.718 10.718 0 0 0 3.197-7.614c0-.316-.127-.62-.354-.844a1.22 1.22 0 0 0-.854-.352h-9.697c-1.626 0-3.23.36-4.697 1.054a10.868 10.868 0 0 0-3.778 2.951V31.06c4.059-.31 7.84-2.16 10.547-5.162a15.437 15.437 0 0 0 3.976-10.943 15.467 15.467 0 0 0-4.816-10.608A15.85 15.85 0 0 0 40.489 0 15.85 15.85 0 0 0 29.57 4.346a15.467 15.467 0 0 0-4.817 10.608 15.438 15.438 0 0 0 3.976 10.943 15.819 15.819 0 0 0 10.547 5.162v16.049a10.866 10.866 0 0 0-3.786-2.965 11.001 11.001 0 0 0-4.713-1.054h-9.68c-.321 0-.63.126-.856.35a1.19 1.19 0 0 0-.355.846 10.718 10.718 0 0 0 3.198 7.612 10.988 10.988 0 0 0 7.707 3.159h8.5v5.803c.524-.423-15.555-.147-15.754-.22a3.66 3.66 0 0 0-2.568 1.052 3.57 3.57 0 0 0-1.065 2.537c.088 1.105-.259 3.802.386 4.77-.153-.744-15.357-.248-16.143-.38a3.678 3.678 0 0 0-1.394.27c-.442.179-.844.443-1.182.776a3.59 3.59 0 0 0-.792 1.164 3.554 3.554 0 0 0-.28 1.375v3.194a3.574 3.574 0 0 0 1.066 2.536 3.663 3.663 0 0 0 2.568 1.053h14.542a3.623 3.623 0 0 0 2.422-.934c.664.597 1.528.93 2.426.934h14.542a3.63 3.63 0 0 0 2.423-.934c.662.597 1.525.93 2.422.934h14.542a3.63 3.63 0 0 0 2.423-.934c.663.597 1.528.93 2.426.934h14.542a3.664 3.664 0 0 0 2.567-1.053 3.574 3.574 0 0 0 1.066-2.536c-.085-1.564.404-4.418-.945-5.597 1.339-1.154.874-4.012.945-5.576ZM50.175 37.495h8.408a8.368 8.368 0 0 1-2.847 5.133 8.563 8.563 0 0 1-5.55 2.049h-8.408a8.368 8.368 0 0 1 2.846-5.133 8.563 8.563 0 0 1 5.551-2.049Zm-19.383 15.16a8.562 8.562 0 0 1-5.55-2.052 8.367 8.367 0 0 1-2.844-5.136h8.394a8.562 8.562 0 0 1 5.55 2.049 8.367 8.367 0 0 1 2.847 5.133l-8.397.007ZM19.89 75.394c0 .318-.129.622-.357.847-.227.224-.536.35-.857.35H4.134c-1.853-.025-1.063-2.823-1.208-4.39 0-.317.127-.62.354-.845.226-.224.533-.35.854-.352h14.542c1.856.028 1.052 2.827 1.215 4.39Zm19.387 0c0 .317-.128.621-.355.845-.227.224-.535.35-.856.352H23.521c-1.856-.025-1.063-2.82-1.212-4.39.001-.317.13-.621.356-.845.227-.225.535-.35.856-.352h14.542c1.855.028 1.04 2.827 1.214 4.39Zm0-7.979c0 .317-.128.621-.355.845-.227.224-.535.35-.856.352H23.521c-1.856-.025-1.063-2.827-1.212-4.39.002-.317.13-.62.357-.843.227-.224.534-.35.855-.35h14.542c1.855.024 1.04 2.823 1.214 4.386Zm-12.12-51.862c0-3.492 1.405-6.841 3.905-9.31 2.5-2.47 5.891-3.857 9.427-3.857 3.535 0 6.926 1.387 9.426 3.857a13.085 13.085 0 0 1 3.904 9.31c0 3.492-1.404 6.84-3.904 9.31a13.415 13.415 0 0 1-9.426 3.857 13.415 13.415 0 0 1-9.427-3.857 13.085 13.085 0 0 1-3.904-9.31Zm31.521 59.845c0 .317-.129.622-.356.846-.228.224-.537.35-.858.35H42.91c-1.852-.024-1.045-2.823-1.211-4.39 0-.317.129-.62.356-.845.227-.224.534-.35.855-.351h14.542c1.856.024 1.048 2.826 1.215 4.39h.01Zm0-7.98c0 .318-.129.623-.356.847-.228.224-.537.35-.858.35H42.91c-1.852-.024-1.045-2.826-1.211-4.39 0-.317.129-.62.356-.845.227-.224.534-.35.855-.351h14.542c1.856.024 1.048 2.826 1.215 4.39h.01Zm0-7.978c0 .317-.129.621-.356.846-.228.224-.537.35-.858.35H42.91c-1.852-.024-1.045-2.826-1.211-4.39 0-.317.127-.622.355-.846.227-.224.535-.35.856-.35h14.542c1.856.024 1.048 2.822 1.215 4.39h.01Zm19.384 15.958c-.001.317-.129.62-.356.845-.227.224-.534.35-.855.351H62.3c-1.855-.024-1.062-2.82-1.21-4.39 0-.317.127-.621.354-.846.227-.224.535-.35.857-.35h14.542c1.852.024 1.048 2.83 1.218 4.39Zm0-7.98c-.001.318-.129.621-.356.846-.227.224-.534.35-.855.351H62.3c-1.855-.024-1.062-2.826-1.21-4.39 0-.317.127-.622.354-.846.227-.224.535-.35.857-.35h14.542c1.852.024 1.048 2.826 1.218 4.39Zm-32.52-48.423a4.682 4.682 0 0 1-1.127 2.91 4.786 4.786 0 0 1-2.719 1.581c.085.886-.067 2.036-1.214 2.04-1.148.003-1.3-1.154-1.212-2.04a4.927 4.927 0 0 1-2.08-.983 4.847 4.847 0 0 1-1.394-1.815c-.11-.29-.102-.61.022-.893.124-.284.354-.51.643-.63.288-.12.612-.124.904-.013.292.11.53.329.662.609.864 2.277 5.157 1.721 5.093-.766 0-1.49-.889-2.246-2.638-2.246a4.705 4.705 0 0 1-3.322-1 4.593 4.593 0 0 1-1.7-2.991 4.564 4.564 0 0 1 .862-3.323 4.672 4.672 0 0 1 2.948-1.812c-.088-.889.064-2.043 1.212-2.043 1.147 0 1.303 1.15 1.214 2.04 1.683.234 5.054 2.941 2.834 4.365a1.22 1.22 0 0 1-1.323-.252 1.192 1.192 0 0 1-.264-.388c-.86-2.281-5.157-1.721-5.093.766 0 1.51.86 2.245 2.624 2.245.652-.069 1.31 0 1.932.204a4.593 4.593 0 0 1 1.672.976c.48.44.86.976 1.112 1.572.253.597.373 1.24.353 1.887Zm-12.75-3.442c0 .317-.127.621-.354.846a1.219 1.219 0 0 1-1.713 0 1.189 1.189 0 0 1 .002-1.697 1.226 1.226 0 0 1 1.723 0c.228.226.357.532.357.85h-.014Zm16.583 1.196c-.322 0-.63-.126-.857-.35a1.189 1.189 0 0 1 0-1.692 1.219 1.219 0 0 1 1.713 0 1.189 1.189 0 0 1 0 1.692c-.227.224-.535.35-.856.35Z"/>
    </symbol>
    <symbol id="benefit-2" viewBox="0 0 81 79">
        <path fill="#161616"
              d="M51.173 23.136h-20.9c-.31-.017-.6-.15-.813-.373a1.19 1.19 0 0 1 0-1.647c.212-.223.503-.356.813-.372h20.9a1.22 1.22 0 0 1 .897.326 1.199 1.199 0 0 1 .378.87 1.188 1.188 0 0 1-.378.87 1.212 1.212 0 0 1-.897.326Zm-34.146 0h6.8c.31-.017.601-.15.814-.373a1.19 1.19 0 0 0 0-1.647 1.215 1.215 0 0 0-.813-.372h-6.801c-.31.016-.6.15-.813.372a1.192 1.192 0 0 0 0 1.647c.213.223.504.356.813.373Zm-6.445-2.392H9.27c-.309.016-.6.15-.813.372a1.192 1.192 0 0 0 0 1.647c.213.223.504.356.813.373h1.312c.31-.017.6-.15.813-.373a1.191 1.191 0 0 0 0-1.647 1.215 1.215 0 0 0-.813-.372Zm23.282 11.174H17.027c-.31.017-.6.15-.813.373a1.191 1.191 0 0 0 0 1.647c.213.223.504.356.813.372h16.837c.32 0 .628-.126.855-.35a1.192 1.192 0 0 0 0-1.694 1.216 1.216 0 0 0-.855-.351v.003Zm-23.282 0H9.27c-.309.017-.6.15-.813.373a1.191 1.191 0 0 0 0 1.647c.213.223.504.356.813.372h1.312c.321 0 .629-.126.856-.35a1.192 1.192 0 0 0 0-1.694 1.216 1.216 0 0 0-.856-.351v.003Zm6.448 13.56h16.834c.309-.016.6-.15.813-.372a1.191 1.191 0 0 0 0-1.647 1.215 1.215 0 0 0-.813-.373H17.027a1.215 1.215 0 0 0-.795.38 1.191 1.191 0 0 0 0 1.629c.207.221.491.357.795.38l.003.003Zm-6.448-2.395H9.27c-.309.016-.6.15-.813.372a1.192 1.192 0 0 0 0 1.648c.213.222.504.355.813.372h1.312c.31-.017.6-.15.813-.372a1.191 1.191 0 0 0 0-1.648 1.215 1.215 0 0 0-.813-.372Zm32.94 11.175H28.664c-.31.016-.6.15-.813.372a1.191 1.191 0 0 0 0 1.648c.213.222.504.355.813.372h14.854c.321 0 .629-.126.856-.35a1.192 1.192 0 0 0 0-1.695 1.216 1.216 0 0 0-.856-.35l.004.003ZM17.03 56.65h5.192c.31-.017.6-.15.813-.372a1.191 1.191 0 0 0 0-1.648 1.216 1.216 0 0 0-.813-.372h-5.196a1.215 1.215 0 0 0-.795.38 1.191 1.191 0 0 0 0 1.628c.207.222.491.357.795.38l.003.004Zm-6.449-2.396H9.27c-.309.017-.6.15-.813.373a1.191 1.191 0 0 0 0 1.647c.213.223.504.356.813.373h1.312c.31-.017.6-.15.813-.373a1.191 1.191 0 0 0 0-1.647 1.215 1.215 0 0 0-.813-.373Zm23.324 12.37a1.184 1.184 0 0 0 .353.844 1.206 1.206 0 0 0 .853.35h16.064a1.22 1.22 0 0 0 .898-.327 1.198 1.198 0 0 0 .378-.87 1.187 1.187 0 0 0-.378-.869 1.213 1.213 0 0 0-.898-.326H35.11a1.218 1.218 0 0 0-.855.35 1.195 1.195 0 0 0-.352.848h.004ZM17.03 67.818h11.64c.31-.017.6-.15.813-.372a1.191 1.191 0 0 0 0-1.648 1.215 1.215 0 0 0-.813-.372h-11.64c-.31.016-.6.149-.814.37a1.192 1.192 0 0 0-.002 1.648c.212.223.506.357.816.374Zm-6.449-2.392H9.27c-.309.016-.6.15-.813.372a1.191 1.191 0 0 0 0 1.648c.213.222.504.355.813.372h1.312c.31-.017.6-.15.813-.372a1.191 1.191 0 0 0 0-1.648 1.215 1.215 0 0 0-.813-.372Zm49.86-27.938v18.84a18.332 18.332 0 0 1 7.803-6.887 18.558 18.558 0 0 1 10.332-1.567c.32 0 .628.126.855.35.227.224.355.527.355.844a17.532 17.532 0 0 1-.588 7.96 17.662 17.662 0 0 1-4.06 6.895 17.893 17.893 0 0 1-6.706 4.429 18.048 18.048 0 0 1-7.99 1.062v5.182a4.371 4.371 0 0 1-1.299 3.102 4.46 4.46 0 0 1-3.132 1.288H4.434a4.464 4.464 0 0 1-3.133-1.288A4.375 4.375 0 0 1 0 74.596V4.386a4.371 4.371 0 0 1 1.301-3.1A4.46 4.46 0 0 1 4.434 0h51.575a4.46 4.46 0 0 1 3.13 1.287 4.37 4.37 0 0 1 1.3 3.1v9.582a1.193 1.193 0 0 1-.376.805 1.217 1.217 0 0 1-1.664 0 1.193 1.193 0 0 1-.376-.805V4.386c0-.528-.214-1.034-.591-1.408a2.025 2.025 0 0 0-1.423-.582H45.934v3.59a5.959 5.959 0 0 1-1.771 4.228 6.08 6.08 0 0 1-4.271 1.754H20.55a6.084 6.084 0 0 1-4.272-1.754 5.963 5.963 0 0 1-1.774-4.228v-3.59H4.434c-.534 0-1.045.21-1.423.582-.378.374-.59.88-.591 1.408v70.21c0 .529.212 1.036.59 1.41.378.374.89.584 1.424.584h51.575c.534 0 1.046-.21 1.424-.584.378-.374.59-.881.59-1.41V53.458a18.048 18.048 0 0 1-7.989-1.063 17.894 17.894 0 0 1-6.705-4.43 17.662 17.662 0 0 1-4.059-6.894 17.531 17.531 0 0 1-.588-7.958 1.185 1.185 0 0 1 .352-.847 1.206 1.206 0 0 1 .854-.351 18.555 18.555 0 0 1 10.334 1.567 18.327 18.327 0 0 1 7.801 6.891v-7.264c.042-2.52.63-5.004 1.722-7.281a17.679 17.679 0 0 1 4.613-5.922 17.893 17.893 0 0 1 6.676-3.5 18.006 18.006 0 0 1 7.54-.45c.32 0 .628.127.855.352.226.224.354.528.355.846a17.482 17.482 0 0 1-.454 7.464 17.595 17.595 0 0 1-3.536 6.61 17.81 17.81 0 0 1-5.982 4.566 17.979 17.979 0 0 1-7.355 1.705l-2.014-.01Zm0-4.085 7.61-7.533a1.208 1.208 0 0 1 .867-.392 1.22 1.22 0 0 1 .884.351 1.197 1.197 0 0 1 .353.877 1.188 1.188 0 0 1-.397.858l-7.605 7.532a15.322 15.322 0 0 0 6.253-1.277 15.185 15.185 0 0 0 5.17-3.71 15 15 0 0 0 3.174-5.484c.653-2.03.864-4.174.617-6.291a15.314 15.314 0 0 0-6.286.58 15.209 15.209 0 0 0-5.502 3.064 15.028 15.028 0 0 0-3.766 5.015 14.89 14.89 0 0 0-1.378 6.099l.007.31Zm-19.34.894a14.89 14.89 0 0 0 .615 6.292c.654 2.03 1.736 3.9 3.174 5.485a15.18 15.18 0 0 0 5.171 3.709c1.97.859 4.101 1.294 6.254 1.276l-7.605-7.53a1.192 1.192 0 0 1 .014-1.678 1.216 1.216 0 0 1 1.696-.015l7.606 7.53a14.91 14.91 0 0 0-1.292-6.19 15.043 15.043 0 0 0-3.745-5.116 15.227 15.227 0 0 0-5.539-3.142 15.334 15.334 0 0 0-6.353-.61l.004-.011ZM16.932 5.986c0 .95.382 1.862 1.06 2.535a3.648 3.648 0 0 0 2.559 1.055h19.34c.962-.001 1.884-.38 2.564-1.053a3.575 3.575 0 0 0 1.063-2.537v-3.59H16.932v3.59Zm43.507 59.342 7.61-7.53a1.213 1.213 0 0 1 1.706 0 1.189 1.189 0 0 1 0 1.691l-7.605 7.533a15.3 15.3 0 0 0 6.258-1.271 15.164 15.164 0 0 0 5.174-3.709 14.98 14.98 0 0 0 3.173-5.488c.652-2.032.86-4.177.61-6.295H75.35a15.068 15.068 0 0 0-5.774 1.16 14.947 14.947 0 0 0-4.872 3.28 14.775 14.775 0 0 0-3.212 4.89 14.661 14.661 0 0 0-1.053 5.739Z"/>
    </symbol>
    <symbol id="benefit-3" viewBox="0 0 81 79">
        <path fill="#161616"
              d="M78.996 58.659a3.552 3.552 0 0 0-3.378-.447 3.42 3.42 0 0 0-.125-2.149 3.467 3.467 0 0 0-1.386-1.659c-1.64-1.245-4.138-.182-8.277 1.577a78.025 78.025 0 0 1-9.696 3.552 5.849 5.849 0 0 0-2.106-1.824 5.924 5.924 0 0 0-2.722-.651c-3.2.113-6.405.004-9.59-.33v-6.366h18.182a17.507 17.507 0 0 0 12.274-5.048 17.101 17.101 0 0 0 5.087-12.139c0-.318-.128-.623-.355-.848a1.22 1.22 0 0 0-.858-.351H56.665a17.52 17.52 0 0 0-8.613 2.273 17.265 17.265 0 0 0-6.336 6.198v-22.06h18.182a17.507 17.507 0 0 0 12.274-5.049A17.101 17.101 0 0 0 77.259 1.2c0-.315-.127-.618-.351-.842A1.224 1.224 0 0 0 76.06 0H56.665a17.507 17.507 0 0 0-12.283 5.043 17.1 17.1 0 0 0-5.092 12.144v7.286a17.264 17.264 0 0 0-6.334-6.206 17.518 17.518 0 0 0-8.615-2.279H4.946c-.321 0-.63.128-.857.352-.227.225-.355.53-.356.847a17.097 17.097 0 0 0 5.091 12.145 17.504 17.504 0 0 0 12.284 5.042H39.29v21.914c-8.175-3.21-5.186-4.587-27.28-4.824L1.915 49.876a1.242 1.242 0 0 0-.981.274 1.215 1.215 0 0 0-.434.912v21.567c0 .286.103.561.29.778.188.217.447.36.732.404l10.103 1.587c15.104 5.287 47.276 6.59 65.92-9.285 1.285-.735 5.02-4.668 1.45-7.454ZM63.11 7.996c-6.399-.28-16.066.136-20.276 3.566a14.826 14.826 0 0 1 5.492-6.65 15.087 15.087 0 0 1 8.304-2.514h18.153a14.731 14.731 0 0 1-4.768 9.668 15.067 15.067 0 0 1-10.131 3.922H41.978c1.242-2.884 6.83-5.594 14.687-5.594h6.445c.322 0 .63-.126.858-.351a1.192 1.192 0 0 0 0-1.696 1.22 1.22 0 0 0-.858-.351Zm-42.002 23.98a15.074 15.074 0 0 1-10.132-3.923 14.738 14.738 0 0 1-4.77-9.667H24.34a15.09 15.09 0 0 1 8.304 2.517 14.83 14.83 0 0 1 5.492 6.65c-4.181-3.43-13.87-3.852-20.265-3.57a1.22 1.22 0 0 0-.816.373 1.192 1.192 0 0 0 0 1.65c.214.223.506.356.816.373h6.462c7.86 0 13.442 2.713 14.687 5.593l-17.913.004ZM10.694 72.822l-7.782-1.217V52.467l7.782 1.217v19.138Zm46.219-11.017c5.493-1.213 11.503-5.083 15.72-5.5 3.943 3.382-10.874 7.028-15.862 8.497.28-.975.329-2 .142-2.997Zm-.248-27.43h18.118a14.735 14.735 0 0 1-4.769 9.666 15.07 15.07 0 0 1-10.13 3.923H41.978c1.242-2.884 6.83-5.594 14.687-5.594h6.445c.322 0 .63-.126.858-.351a1.192 1.192 0 0 0 0-1.696 1.22 1.22 0 0 0-.858-.351c-6.395-.28-16.066.14-20.276 3.57a14.827 14.827 0 0 1 5.506-6.662 15.088 15.088 0 0 1 8.325-2.506ZM76.12 64.185C51.33 83.625 18.682 75.024 13.135 73.35V53.862c16.555.073 19.307 1.675 21.74 3.087 2.501 1.448 4.655 2.7 16.54 2.507.502-.001.997.11 1.447.328.45.217.845.534 1.152.925a3.223 3.223 0 0 1 .585 2.799c0 .35-.187 1.528-2.302 2.3-2.268.878-7.263 1.626-18.2.224-.32-.04-.642.046-.897.24a1.19 1.19 0 0 0-.22 1.684c.196.252.486.416.806.457 12.543 2.822 29.784-2.342 38.32-6.324 2.475-1.05 4.824-2.025 5.351-1.591 1.723 1.293-.552 3.038-1.355 3.688h.018ZM6.807 56.603c.322 0 .63.126.858.351a1.192 1.192 0 0 1 0 1.696 1.22 1.22 0 0 1-1.716 0 1.192 1.192 0 0 1 0-1.696 1.22 1.22 0 0 1 .858-.35Z"/>
    </symbol>
    <symbol id="benefit-4" viewBox="0 0 81 79">
        <path fill="#161616"
              d="M79.313 38.295h-6.418a32.57 32.57 0 0 0-8.79-15.51L41.359.334a1.262 1.262 0 0 0-1.716 0L22.158 17.588c-.354 0-.708-.052-1.062-.052H1.686a1.223 1.223 0 0 0-.858.349 1.196 1.196 0 0 0-.355.846c.002 3.224.781 6.4 2.272 9.269a20.4 20.4 0 0 0 6.305 7.224C-4.13 77.838 57.465 97.847 72.403 55.648a20.38 20.38 0 0 0 5.98-7.145 20.108 20.108 0 0 0 2.144-9.023 1.191 1.191 0 0 0-.36-.839 1.222 1.222 0 0 0-.854-.346ZM40.498 2.863l21.895 21.613a30.22 30.22 0 0 1 7.989 13.82H59.907a20.83 20.83 0 0 0-10.611 2.91 20.482 20.482 0 0 0-7.584 7.885V37.907a20.238 20.238 0 0 0-4.648-12.877 20.705 20.705 0 0 0-11.84-7.086L40.498 2.863ZM2.951 19.929h18.142a18.375 18.375 0 0 1 10.135 3.065 18.027 18.027 0 0 1 6.69 8.119c-5.045-4.564-16.156-4.107-23.286-3.998-.31.016-.602.15-.816.372a1.19 1.19 0 0 0 0 1.65c.214.222.506.355.816.372h9.696c7.384 0 13.707 3.187 14.779 7.186H21.093A18.344 18.344 0 0 1 8.677 31.84 17.894 17.894 0 0 1 2.95 19.929Zm59.47 47.773c-23.46 22.522-61.152-.786-51.247-31.13a20.716 20.716 0 0 0 9.911 2.517h18.196v32.339a1.185 1.185 0 0 0 .33.89 1.213 1.213 0 0 0 .882.374 1.229 1.229 0 0 0 .881-.375 1.195 1.195 0 0 0 .331-.889V59.849H59.9a20.669 20.669 0 0 0 9.204-2.163 30.171 30.171 0 0 1-6.712 10.016h.029Zm-2.478-10.247H41.889c1.062-3.998 7.395-7.186 14.78-7.186h9.702c.31-.016.603-.15.816-.372a1.19 1.19 0 0 0 0-1.65 1.221 1.221 0 0 0-.816-.372c-7.1-.119-18.304-.556-23.3 3.995a18.024 18.024 0 0 1 6.691-8.12A18.371 18.371 0 0 1 59.9 40.685h18.153a17.897 17.897 0 0 1-5.727 11.913 18.348 18.348 0 0 1-12.418 4.856h.035Zm-26.74 11.883a24.584 24.584 0 0 1-13.097-9.578 24.062 24.062 0 0 1-4.16-15.558c.04-.305.197-.582.438-.776a1.225 1.225 0 0 1 1.667.128c.208.228.32.526.312.833A21.69 21.69 0 0 0 22.12 58.42c2.832 4.12 7 7.165 11.82 8.632a1.228 1.228 0 0 1 .708.605 1.195 1.195 0 0 1-.169 1.332 1.22 1.22 0 0 1-.837.414 1.239 1.239 0 0 1-.474-.058l.035-.007Z"/>
    </symbol>
    <symbol id="benefit-5" viewBox="0 0 81 79">
        <path fill="#161616"
              d="M22.319 15.558v-4.785a2.795 2.795 0 0 0-.833-1.97 2.867 2.867 0 0 0-1.995-.825h-8.08a2.867 2.867 0 0 0-2.003.83 2.795 2.795 0 0 0-.828 1.982v4.768c0 .746.3 1.462.835 1.989a2.867 2.867 0 0 0 2.014.824h8.062a2.867 2.867 0 0 0 2.001-.831c.53-.527.827-1.24.827-1.982Zm-11.314 0v-4.785a.409.409 0 0 1 .406-.4h8.08c.107 0 .21.043.285.118a.399.399 0 0 1 .118.282v4.785a.399.399 0 0 1-.118.282.409.409 0 0 1-.285.119h-8.08a.412.412 0 0 1-.286-.118.402.402 0 0 1-.12-.283Zm5.748 8.73a1.228 1.228 0 0 1 .9.327 1.198 1.198 0 0 1 .38.87 1.185 1.185 0 0 1-.38.87 1.218 1.218 0 0 1-.9.328H9.794a1.221 1.221 0 0 1-.815-.373 1.19 1.19 0 0 1 0-1.65c.213-.222.505-.355.815-.372h6.959Zm5.804 0h6.959c.31.017.602.15.816.373a1.19 1.19 0 0 1 0 1.649 1.221 1.221 0 0 1-.816.373h-6.959a1.22 1.22 0 0 1-.815-.373 1.19 1.19 0 0 1 0-1.65 1.22 1.22 0 0 1 .815-.372Zm12.763 2.395a1.221 1.221 0 0 1-.816-.373 1.191 1.191 0 0 1 0-1.65c.214-.222.506-.355.816-.372h6.962c.31.017.603.15.816.373a1.19 1.19 0 0 1 0 1.649 1.221 1.221 0 0 1-.816.373H35.32Zm19.725 0h-6.962a1.22 1.22 0 0 1-.816-.373 1.19 1.19 0 0 1 0-1.65 1.22 1.22 0 0 1 .816-.372h6.962a1.229 1.229 0 0 1 .901.327 1.198 1.198 0 0 1 .38.87 1.186 1.186 0 0 1-.38.87 1.218 1.218 0 0 1-.9.328Zm-32.139 6.88H9.794a1.229 1.229 0 0 1-.9-.327 1.199 1.199 0 0 1-.38-.87 1.186 1.186 0 0 1 .38-.87 1.216 1.216 0 0 1 .9-.327h13.112c.31.017.603.15.816.373a1.19 1.19 0 0 1 0 1.649 1.221 1.221 0 0 1-.816.372Zm7.066-2.394h18.396c.31.017.602.15.816.373a1.19 1.19 0 0 1 0 1.649 1.221 1.221 0 0 1-.816.372H29.972a1.22 1.22 0 0 1-.816-.372 1.19 1.19 0 0 1 0-1.65 1.22 1.22 0 0 1 .816-.372ZM51.007 7.964A5.246 5.246 0 0 0 47.631 9.2a5.295 5.295 0 0 0-5.582-.737 5.215 5.215 0 0 0-2.207 1.907 5.121 5.121 0 0 0 0 5.56 5.215 5.215 0 0 0 2.207 1.908 5.296 5.296 0 0 0 5.582-.737 5.273 5.273 0 0 0 2.236 1.092 5.312 5.312 0 0 0 2.494-.051 5.265 5.265 0 0 0 2.188-1.183 5.174 5.174 0 0 0 1.388-2.047 5.117 5.117 0 0 0-.631-4.744 5.225 5.225 0 0 0-1.876-1.624 5.3 5.3 0 0 0-2.423-.585v.004Zm-6.738 7.98a2.86 2.86 0 0 1-1.795-.924 2.792 2.792 0 0 1-.72-1.869c0-.689.256-1.354.72-1.868a2.86 2.86 0 0 1 1.795-.925c.753 0 1.474.295 2.006.82.532.525.83 1.238.83 1.98 0 .743-.298 1.456-.83 1.98a2.855 2.855 0 0 1-2.006.82v-.013Zm6.738 0a2.844 2.844 0 0 1-1.92-.741 5.112 5.112 0 0 0 0-4.103 2.85 2.85 0 0 1 3.714-.01c.341.295.605.666.77 1.083a2.745 2.745 0 0 1-.282 2.553 2.8 2.8 0 0 1-.988.892 2.841 2.841 0 0 1-1.294.34v-.013ZM6.554 47.87c-3.045.351-6-1.055-6.054-4.388V4.388c0-1.164.47-2.28 1.303-3.102A4.477 4.477 0 0 1 4.944 0h54.952c1.178 0 2.308.464 3.141 1.286a4.363 4.363 0 0 1 1.303 3.102v30.314a1.192 1.192 0 0 1-.378.806 1.223 1.223 0 0 1-1.67 0c-.226-.211-.36-.5-.377-.806V4.388a1.98 1.98 0 0 0-.592-1.41 2.032 2.032 0 0 0-1.428-.584H4.945c-.536 0-1.05.21-1.429.584a1.98 1.98 0 0 0-.59 1.41v39.094c.067 2.07 2.065 2.078 3.635 1.993.31.018.602.152.815.375a1.19 1.19 0 0 1-.005 1.65 1.221 1.221 0 0 1-.817.37Zm72.728-9.574h-67.87c-.323 0-.632.126-.86.35-.227.226-.355.53-.355.849v38.292a1.186 1.186 0 0 0 .356.848 1.218 1.218 0 0 0 .858.35H79.29c.322 0 .63-.127.857-.352a1.19 1.19 0 0 0 .354-.846V39.495a1.183 1.183 0 0 0-.353-.848 1.21 1.21 0 0 0-.858-.351h-.007ZM78.068 76.59h-65.46v-35.9H78.06l.007 35.9Zm-59.385-9.573c.964 0 1.888.379 2.57 1.052a3.57 3.57 0 0 1 1.066 2.537c0 .317.127.621.355.846.227.224.535.35.856.35h43.637c.321 0 .63-.126.856-.35.228-.225.355-.529.355-.846a3.574 3.574 0 0 1 1.067-2.536 3.667 3.667 0 0 1 2.569-1.053c.321 0 .63-.126.857-.35.228-.224.356-.529.357-.846V51.46c0-.317-.13-.621-.357-.845a1.222 1.222 0 0 0-.857-.35 3.667 3.667 0 0 1-2.569-1.053 3.574 3.574 0 0 1-1.067-2.537 1.182 1.182 0 0 0-.353-.847 1.212 1.212 0 0 0-.858-.352H23.53a1.227 1.227 0 0 0-.858.352 1.194 1.194 0 0 0-.353.847c.001.473-.092.94-.274 1.378-.182.437-.45.834-.787 1.169-.338.334-.74.6-1.18.782a3.682 3.682 0 0 1-1.395.275c-.322 0-.63.126-.857.35a1.192 1.192 0 0 0-.357.846v14.362c.004.315.134.616.361.837.228.22.534.345.853.345Zm1.21-14.483a6.102 6.102 0 0 0 3.073-1.633 5.98 5.98 0 0 0 1.657-3.032h41.455a5.955 5.955 0 0 0 1.651 3.035c.84.83 1.91 1.396 3.074 1.63v12.211a6.078 6.078 0 0 0-3.074 1.63 5.955 5.955 0 0 0-1.651 3.036H24.623a5.98 5.98 0 0 0-1.657-3.033 6.103 6.103 0 0 0-3.072-1.633v-12.21Zm11.464 10.9a4.88 4.88 0 0 0 3.344-1.447 4.757 4.757 0 0 0 1.375-3.34 4.757 4.757 0 0 0-1.375-3.34 4.88 4.88 0 0 0-3.344-1.447 4.877 4.877 0 0 0-3.282 1.478 4.756 4.756 0 0 0-1.34 3.305c0 1.232.48 2.415 1.34 3.306.861.89 2.036 1.42 3.282 1.478v.007Zm0-7.18a2.44 2.44 0 0 1 1.654.732c.435.447.678 1.042.678 1.66 0 .62-.243 1.215-.678 1.661a2.439 2.439 0 0 1-1.654.732 2.439 2.439 0 0 1-1.654-.732 2.378 2.378 0 0 1-.678-1.66c0-.62.243-1.214.678-1.66a2.44 2.44 0 0 1 1.654-.733Zm28.282 7.18a4.88 4.88 0 0 0 3.344-1.447 4.757 4.757 0 0 0 1.375-3.34 4.757 4.757 0 0 0-1.375-3.34 4.88 4.88 0 0 0-3.344-1.447 4.877 4.877 0 0 0-3.282 1.478 4.756 4.756 0 0 0-1.34 3.305c0 1.232.48 2.415 1.34 3.306.861.89 2.037 1.42 3.282 1.478v.007Zm0-7.18a2.44 2.44 0 0 1 1.654.732c.435.447.678 1.042.678 1.66 0 .62-.243 1.215-.677 1.661a2.439 2.439 0 0 1-1.655.732 2.439 2.439 0 0 1-1.654-.732 2.378 2.378 0 0 1-.678-1.66c0-.62.243-1.214.678-1.66a2.44 2.44 0 0 1 1.654-.733ZM44.13 50.718c-.089-.886.065-2.043 1.211-2.043 1.147 0 1.3 1.153 1.211 2.04.768.158 1.485.497 2.093.986a4.856 4.856 0 0 1 1.4 1.826c.108.29.098.608-.027.89a1.207 1.207 0 0 1-.642.627c-.288.12-.611.125-.903.015a1.21 1.21 0 0 1-.664-.604c-.862-2.282-5.153-1.726-5.089.767 0 1.508.855 2.243 2.621 2.243a4.713 4.713 0 0 1 3.451.916 4.567 4.567 0 0 1 .856 6.464 4.682 4.682 0 0 1-3.096 1.761c.09.886-.068 2.036-1.21 2.04-1.144.003-1.3-1.157-1.212-2.043a4.935 4.935 0 0 1-2.083-.99 4.853 4.853 0 0 1-1.392-1.823 1.183 1.183 0 0 1-.007-.916c.121-.294.355-.529.651-.652.297-.124.63-.126.928-.007.298.12.536.35.66.643.862 2.286 5.157 1.727 5.093-.763 0-1.487-.887-2.243-2.639-2.243a4.713 4.713 0 0 1-3.45-.916 4.598 4.598 0 0 1-1.785-3.057 4.566 4.566 0 0 1 .928-3.407 4.682 4.682 0 0 1 3.096-1.761v.007Z"/>
    </symbol>
    <symbol viewBox="0 0 25 24" id="instagram">
        <path
              d="M17.68 5.672c0-.691.588-1.252 1.315-1.252.726 0 1.315.56 1.315 1.252s-.589 1.253-1.315 1.253c-.727 0-1.316-.56-1.316-1.253Z"/>
        <path fill-rule="evenodd"
              d="M12.418 5.986c-3.45 0-6.247 2.664-6.247 5.95 0 3.287 2.797 5.95 6.247 5.95 3.45 0 6.248-2.663 6.248-5.95 0-3.286-2.797-5.95-6.248-5.95Zm-4.274 5.95c0-2.248 1.913-4.071 4.274-4.071 2.361 0 4.275 1.823 4.275 4.071 0 2.249-1.914 4.072-4.275 4.072-2.36 0-4.274-1.823-4.274-4.072Z"
              clip-rule="evenodd"/>
        <path fill-rule="evenodd"
              d="M19.335.452a65.881 65.881 0 0 0-13.832 0C2.857.733.72 2.719.409 5.252a54.81 54.81 0 0 0 0 13.366c.311 2.534 2.448 4.52 5.094 4.801 4.56.486 9.273.486 13.832 0 2.647-.281 4.783-2.267 5.094-4.8.546-4.44.546-8.926 0-13.366-.31-2.534-2.447-4.52-5.094-4.801ZM5.722 2.319c4.414-.47 8.98-.47 13.394 0 1.75.186 3.151 1.501 3.354 3.152a53.024 53.024 0 0 1 0 12.93c-.203 1.65-1.604 2.965-3.354 3.151-4.414.47-8.98.47-13.394 0-1.75-.186-3.15-1.501-3.353-3.152a53.02 53.02 0 0 1 0-12.929c.202-1.65 1.604-2.966 3.353-3.152Z"
              clip-rule="evenodd"/>
    </symbol>
    <symbol viewBox="0 0 29 24" id="telegram">
        <path fill-rule="evenodd"
              d="M6.656 14.44c.061.02.123.034.185.043l.255.573c.248.557.58 1.31.925 2.095.702 1.602 1.41 3.253 1.566 3.725.193.584.398.981.62 1.252.116.14.25.263.406.356.079.046.162.085.249.113l.011.004c.447.161.855.094 1.11.012a1.878 1.878 0 0 0 .426-.2l.006-.003 3.948-2.35 4.56 3.336c.068.05.141.09.22.123.547.228 1.077.308 1.577.243a2.47 2.47 0 0 0 1.188-.49 2.701 2.701 0 0 0 .787-.97l.013-.03.005-.011.002-.005.001-.002.001-.002a.966.966 0 0 0 .055-.177L28.936 2.05a.956.956 0 0 0 .02-.194c0-.586-.232-1.144-.777-1.482-.465-.29-.984-.302-1.311-.278-.354.025-.68.108-.9.175a4.955 4.955 0 0 0-.362.126l-.016.006L2.24 9.141l-.003.001a3.283 3.283 0 0 0-.233.092c-.138.06-.331.152-.53.282-.318.208-1.047.775-.925 1.713.099.748.635 1.207.963 1.428.18.12.35.207.474.264.058.026.178.072.23.093l.013.005 4.426 1.421ZM26.407 2.245l-.003.001-.035.014-23.377 8.749a1.184 1.184 0 0 1-.037.013l-.013.004a1.606 1.606 0 0 0-.128.055 1.16 1.16 0 0 0 .12.056l4.39 1.41c.081.026.156.06.225.101l14.496-8.095.013-.008a2.8 2.8 0 0 1 .174-.09c.1-.05.261-.122.443-.175.126-.037.498-.142.9-.02.249.077.506.24.673.517.083.138.128.276.15.402.056.2.047.396.003.566-.096.366-.366.651-.611.87-.21.187-2.928 2.687-5.609 5.154l-3.65 3.36-.649.599 8.203 6c.188.064.3.06.351.054a.328.328 0 0 0 .163-.07.673.673 0 0 0 .145-.159l.001-.002 4.038-19.422a2.688 2.688 0 0 0-.373.115h-.003ZM14.587 18.76l-1.637-1.197-.396 2.407 2.033-1.21Zm-3.138-3.572 1.627-1.499 3.65-3.36 1.359-1.25-9.108 5.086.048.11c.249.559.583 1.315.93 2.104.258.59.528 1.212.775 1.788l.395-2.4a.983.983 0 0 1 .324-.579Z"
              clip-rule="evenodd"/>
    </symbol>
    <symbol viewBox="0 0 24 24" id="viber">
        <path
              d="M7.422 5.005c-.22-.03-.444.011-.636.12H6.77a4.836 4.836 0 0 0-1.186.93c-.284.313-.438.63-.478.934-.024.182-.008.363.049.537l.02.012c.32.895.737 1.757 1.247 2.568a15.169 15.169 0 0 0 2.404 3.135l.028.039.044.031.028.031.033.027a16.047 16.047 0 0 0 3.295 2.305c1.368.71 2.198 1.046 2.696 1.186v.007c.146.042.28.061.413.061.425-.03.826-.194 1.142-.467.384-.325.71-.709.963-1.135v-.007c.239-.429.158-.834-.186-1.109a14.366 14.366 0 0 0-2.227-1.525c-.53-.274-1.068-.108-1.287.17l-.465.56c-.239.278-.673.24-.673.24l-.012.007C9.384 12.874 8.522 9.75 8.522 9.75s-.04-.425.258-.641l.583-.448c.28-.217.474-.73.174-1.236A13.372 13.372 0 0 0 7.943 5.3a.895.895 0 0 0-.523-.298l.002.002ZM12.888 3.647a.579.579 0 0 0-.592.565c0 .312.265.565.592.565 1.497 0 2.741.467 3.724 1.36a5 5 0 0 1 1.159 1.704 4.72 4.72 0 0 1 .347 1.996.576.576 0 0 0 .567.588.582.582 0 0 0 .617-.54 5.805 5.805 0 0 0-.427-2.453 6.128 6.128 0 0 0-1.426-2.094l-.012-.011c-1.22-1.113-2.766-1.68-4.55-1.68Z"/>
        <path
              d="M12.846 5.505a.58.58 0 0 0-.592.565.58.58 0 0 0 .592.565h.02c1.08.072 1.866.416 2.417.98.565.58.857 1.302.835 2.195a.578.578 0 0 0 .579.578.58.58 0 0 0 .605-.552c.029-1.172-.366-2.183-1.15-2.99h-.002c-.801-.821-1.9-1.255-3.225-1.34l-.02-.001h-.059Z"/>
        <path
              d="M12.824 7.397a.582.582 0 0 0-.623.534.576.576 0 0 0 .56.594c.497.025.812.167 1.011.358.2.192.349.5.376.983.018.312.297.55.623.534a.575.575 0 0 0 .56-.595c-.038-.678-.26-1.277-.717-1.717-.458-.44-1.083-.656-1.79-.691Z"/>
        <path fill-rule="evenodd"
              d="M6.358.69a27.466 27.466 0 0 1 11.445 0l.402.086c2.246.479 4.019 2.123 4.585 4.251a21.285 21.285 0 0 1 0 10.959c-.566 2.128-2.34 3.772-4.585 4.25l-.402.086c-2.367.505-4.79.693-7.197.564l-3.142 2.681a.921.921 0 0 1-.887.169.86.86 0 0 1-.582-.66l-.52-2.962c-2.015-.597-3.578-2.154-4.103-4.128a21.284 21.284 0 0 1 0-10.959C1.938 2.899 3.71 1.255 5.957.776L6.358.69Zm11.058 1.654a25.607 25.607 0 0 0-10.67 0l-.402.086c-1.592.34-2.85 1.505-3.25 3.014a19.664 19.664 0 0 0 0 10.125c.4 1.509 1.658 2.674 3.25 3.014l.106.023a.866.866 0 0 1 .683.687l.348 1.986L9.7 19.386a.915.915 0 0 1 .655-.214c2.36.16 4.74-.008 7.062-.503l.401-.086c1.593-.34 2.85-1.505 3.251-3.014a19.667 19.667 0 0 0 0-10.125c-.401-1.51-1.658-2.675-3.25-3.014l-.402-.086Z"
              clip-rule="evenodd"/>
    </symbol>
</svg>