<svg xmlns="http://www.w3.org/2000/svg" width="29" height="24" fill="none">
    <path fill="#000" fill-rule="evenodd"
          d="M6.656 14.44c.061.02.123.034.185.043l.255.573c.248.557.58 1.31.925 2.095.702 1.602 1.41 3.253 1.566 3.725.193.584.398.981.62 1.252.116.14.25.263.406.356.079.046.162.085.249.113l.011.004c.447.161.855.094 1.11.012a1.878 1.878 0 0 0 .426-.2l.006-.003 3.948-2.35 4.56 3.336c.068.05.141.09.22.123.547.228 1.077.308 1.577.243a2.47 2.47 0 0 0 1.188-.49 2.701 2.701 0 0 0 .787-.97l.013-.03.005-.011.002-.005.001-.002.001-.002a.966.966 0 0 0 .055-.177L28.936 2.05a.956.956 0 0 0 .02-.194c0-.586-.232-1.144-.777-1.482-.465-.29-.984-.302-1.311-.278-.354.025-.68.108-.9.175a4.955 4.955 0 0 0-.362.126l-.016.006L2.24 9.141l-.003.001a3.283 3.283 0 0 0-.233.092c-.138.06-.331.152-.53.282-.318.208-1.047.775-.925 1.713.099.748.635 1.207.963 1.428.18.12.35.207.474.264.058.026.178.072.23.093l.013.005 4.426 1.421ZM26.407 2.245l-.003.001-.035.014-23.377 8.749a1.184 1.184 0 0 1-.037.013l-.013.004a1.606 1.606 0 0 0-.128.055 1.16 1.16 0 0 0 .12.056l4.39 1.41c.081.026.156.06.225.101l14.496-8.095.013-.008a2.8 2.8 0 0 1 .174-.09c.1-.05.261-.122.443-.175.126-.037.498-.142.9-.02.249.077.506.24.673.517.083.138.128.276.15.402.056.2.047.396.003.566-.096.366-.366.651-.611.87-.21.187-2.928 2.687-5.609 5.154l-3.65 3.36-.649.599 8.203 6c.188.064.3.06.351.054a.328.328 0 0 0 .163-.07.673.673 0 0 0 .145-.159l.001-.002 4.038-19.422a2.688 2.688 0 0 0-.373.115h-.003ZM14.587 18.76l-1.637-1.197-.396 2.407 2.033-1.21Zm-3.138-3.572 1.627-1.499 3.65-3.36 1.359-1.25-9.108 5.086.048.11c.249.559.583 1.315.93 2.104.258.59.528 1.212.775 1.788l.395-2.4a.983.983 0 0 1 .324-.579Z"
          clip-rule="evenodd"/>
</svg>
