<svg xmlns="http://www.w3.org/2000/svg" width="24" height="24" fill="none" viewBox="0 0 24 24">
    <path fill="#000"
          d="M7.422 5.005c-.22-.03-.444.011-.636.12H6.77a4.836 4.836 0 0 0-1.186.93c-.284.313-.438.63-.478.934-.024.182-.008.363.049.537l.02.012c.32.895.737 1.757 1.247 2.568a15.169 15.169 0 0 0 2.404 3.135l.028.039.044.031.028.031.033.027a16.047 16.047 0 0 0 3.295 2.305c1.368.71 2.198 1.046 2.696 1.186v.007c.146.042.28.061.413.061.425-.03.826-.194 1.142-.467.384-.325.71-.709.963-1.135v-.007c.239-.429.158-.834-.186-1.109a14.366 14.366 0 0 0-2.227-1.525c-.53-.274-1.068-.108-1.287.17l-.465.56c-.239.278-.673.24-.673.24l-.012.007C9.384 12.874 8.522 9.75 8.522 9.75s-.04-.425.258-.641l.583-.448c.28-.217.474-.73.174-1.236A13.372 13.372 0 0 0 7.943 5.3a.895.895 0 0 0-.523-.298l.002.002ZM12.888 3.647a.579.579 0 0 0-.592.565c0 .312.265.565.592.565 1.497 0 2.741.467 3.724 1.36a5 5 0 0 1 1.159 1.704 4.72 4.72 0 0 1 .347 1.996.576.576 0 0 0 .567.588.582.582 0 0 0 .617-.54 5.805 5.805 0 0 0-.427-2.453 6.128 6.128 0 0 0-1.426-2.094l-.012-.011c-1.22-1.113-2.766-1.68-4.55-1.68Z"/>
    <path fill="#000"
          d="M12.846 5.505a.58.58 0 0 0-.592.565.58.58 0 0 0 .592.565h.02c1.08.072 1.866.416 2.417.98.565.58.857 1.302.835 2.195a.578.578 0 0 0 .579.578.58.58 0 0 0 .605-.552c.029-1.172-.366-2.183-1.15-2.99h-.002c-.801-.821-1.9-1.255-3.225-1.34l-.02-.001h-.059Z"/>
    <path fill="#000"
          d="M12.824 7.397a.582.582 0 0 0-.623.534.576.576 0 0 0 .56.594c.497.025.812.167 1.011.358.2.192.349.5.376.983.018.312.297.55.623.534a.575.575 0 0 0 .56-.595c-.038-.678-.26-1.277-.717-1.717-.458-.44-1.083-.656-1.79-.691Z"/>
    <path fill="#000" fill-rule="evenodd"
          d="M6.358.69a27.466 27.466 0 0 1 11.445 0l.402.086c2.246.479 4.019 2.123 4.585 4.251a21.285 21.285 0 0 1 0 10.959c-.566 2.128-2.34 3.772-4.585 4.25l-.402.086c-2.367.505-4.79.693-7.197.564l-3.142 2.681a.921.921 0 0 1-.887.169.86.86 0 0 1-.582-.66l-.52-2.962c-2.015-.597-3.578-2.154-4.103-4.128a21.284 21.284 0 0 1 0-10.959C1.938 2.899 3.71 1.255 5.957.776L6.358.69Zm11.058 1.654a25.607 25.607 0 0 0-10.67 0l-.402.086c-1.592.34-2.85 1.505-3.25 3.014a19.664 19.664 0 0 0 0 10.125c.4 1.509 1.658 2.674 3.25 3.014l.106.023a.866.866 0 0 1 .683.687l.348 1.986L9.7 19.386a.915.915 0 0 1 .655-.214c2.36.16 4.74-.008 7.062-.503l.401-.086c1.593-.34 2.85-1.505 3.251-3.014a19.667 19.667 0 0 0 0-10.125c-.401-1.51-1.658-2.675-3.25-3.014l-.402-.086Z"
          clip-rule="evenodd"/>
</svg>